# xmcd CD database file
#
# Track frame offsets:
#	174
#	13343
#	33293
#	53115
#	79433
#	106144
#	129187
#	157560
#	188363
#	206917
#	241378
#	265863
#	285971
#	307994
#
# Disc length: 4228 seconds
#
# Revision: 0
# Processed by: cddbd v1.5PL3 Copyright (c) Steve Scherf et al.
# Submitted via: CDex 1.51
#
DISCID=aa10820e
DTITLE=George Michael - Patience
DYEAR=2004
DGENRE=Blues
TTITLE0=Patience
TTITLE1=Amazing
TTITLE2=John And Elvis Are Dead
TTITLE3=Cars And Trains
TTITLE4=Round Here
TTITLE5=Shoot The Dog
TTITLE6=My Mother Had A Brother
TTITLE7=Flawless (Go To The City)
TTITLE8=American Angel
TTITLE9=Precious Box
TTITLE10=Please Send Me Someone (Anselmo's Song)
TTITLE11=Freeek! '04
TTITLE12=Through
TTITLE13=Patience PT II
EXTD=YEAR: 2004
EXTT0=
EXTT1=
EXTT2=
EXTT3=
EXTT4=
EXTT5=
EXTT6=
EXTT7=
EXTT8=
EXTT9=
EXTT10=
EXTT11=
EXTT12=
EXTT13=
PLAYORDER=
